<svg width="600" height="600" xmlns="http://www.w3.org/2000/svg" xmlns:xlink="http://www.w3.org/1999/xlink"><defs><circle id="a" cx="225" cy="225" r="225"/><path id="c" d="M0 0h31.908v108.466H0z"/></defs><g fill="none" fill-rule="evenodd"><g transform="translate(76 75)"><mask id="b" fill="#fff"><use xlink:href="#a"/></mask><use fill="#2C97DE" xlink:href="#a"/><path fill="#1FCE6D" mask="url(#b)" d="M28 349h397v131H28z"/><g transform="translate(3 40)" fill="#FFF"><path d="M16 37h80v22H16z"/><circle cx="95" cy="45" r="14"/><circle cx="15.5" cy="43.5" r="15.5"/><circle cx="69.5" cy="29.5" r="29.5"/><circle cx="32.5" cy="31.5" r="11.5"/></g><g transform="translate(341 69)" fill="#FFF"><path d="M16 37h80v22H16z"/><circle cx="95" cy="45" r="14"/><circle cx="15.5" cy="43.5" r="15.5"/><circle cx="69.5" cy="29.5" r="29.5"/><circle cx="32.5" cy="31.5" r="11.5"/></g><path d="M72.314 113.5h65.172M36 113.5h12.283" fill="#FFE500" stroke="#FFF" stroke-linecap="round" stroke-linejoin="round" stroke-width="5"/><path d="M351.314 142.5h65.172m-91.486 0h12.283" fill="#FFE500" stroke="#FFF" stroke-linecap="round" stroke-linejoin="round" stroke-width="5"/><path d="M324.592 27h46.045m-58.194 0h2.235" fill="#FFE500" stroke="#FFF" stroke-linecap="round" stroke-linejoin="round" stroke-width="5"/></g><g transform="translate(288.825 41.448)"><path fill="#FFF" d="M0 18.773h24.351v3.337H0z"/><path fill="#ECF0F1" d="M0 22.11h24.351v1.669H0z"/><path fill="#F2C500" d="M0 22.11h3.779v18.356H0zm20.573 0h3.779v18.356h-3.779z"/><path fill="#2B3E51" d="M3.779 23.779h16.794v16.687H3.779z"/><path d="M12.176 16.687c3.478 0 6.297-2.802 6.297-6.258S17.128 0 12.176 0C7.223 0 5.878 6.973 5.878 10.43c0 3.455 2.82 6.257 6.298 6.257z" fill="#E94B35"/><path fill="#F2C500" d="M5.878 10.429h12.595v8.344H5.878z"/><path fill="#2B3E51" d="M5.038 9.595h14.275v1.669H5.038z"/><ellipse fill="#FFF" cx="12.176" cy="32.123" rx="6.298" ry="6.258"/></g><path fill="#33495F" d="M282.947 81.914h36.107v3.337h-36.107z"/><path fill="#00BD9C" d="M282.947 86.086h36.107v3.337h-36.107z"/><path fill="#FFF" d="M282.947 85.251h36.107v1h-36.107z"/><path fill="#E94B35" d="M285.046 89.423h31.908v32.957h-31.908z"/><path fill="#33495F" d="M282.947 89.423h36.107l-2.1 5.84h-31.908z"/><path d="M300.581 95.264h.84v27.116h-.84V95.264zm2.939 0h.84v27.116h-.84V95.264zm-5.878 0h.84v27.116h-.84V95.264zm-11.336 0h.84v27.116h-.84V95.264zm2.939 0h.84v27.116h-.84V95.264zm25.61 0h.84v27.116h-.84V95.264zm-2.939 0h.84v27.116h-.84V95.264z" fill="#F2C500"/><path fill="#FFF" d="M285.046 99.853h31.908v1.669h-31.908z"/><path fill="#FFF" d="M285.046 122.38h31.908v2.503h-31.908z"/><g transform="translate(285.046 124.883)"><mask id="d" fill="#fff"><use xlink:href="#c"/></mask><use fill="#ECF0F1" xlink:href="#c"/><path d="M13.435 10.847l2.52-5.84 2.518 5.84v97.62h-5.038v-97.62zm15.954 0l2.52-5.84 2.518 5.84v97.62H29.39v-97.62zm-31.908 0L0 5.007l2.52 5.84v97.62h-5.04v-97.62z" fill="#FFF" mask="url(#d)"/></g><path d="M292.183 89.423h2.52V233.35h-2.52V89.423zm14.695 0h2.52V233.35h-2.52V89.423z" fill="#F2C500"/><path fill="#ECF0F1" d="M285.046 258.798h31.908v121.399h-31.908z"/><path fill="#33495F" d="M282.947 233.35h36.107v3.337h-36.107z"/><path fill="#00BD9C" d="M282.947 237.521h36.107v3.337h-36.107z"/><path fill="#FFF" d="M282.947 236.687h36.107v1h-36.107z"/><path fill="#ECF0F1" d="M282.947 240.859h36.107l-2.1 14.601h-31.908z"/><path fill="#FFF" d="M285.046 255.46h31.908v3.337h-31.908z"/><path fill="#F2C500" d="M277.069 288h47.863v7.509h-47.863z"/><path fill="#2B3E51" d="M280.008 295.51h41.985l-2.1 7.508h-37.786z"/><path fill="#00BD9C" d="M282.107 303.018h37.786l12.596 3.338h-62.977z"/><path fill="#00A185" d="M290.924 280.491h4.198V288h-4.198zm15.954 0h4.198V288h-4.198z"/><path fill="#FFF" d="M289.664 278.822h5.458v1.669h-5.458zm17.214 0h5.458v1.669h-5.458z"/><path d="M297.245 272.982a3.77 3.77 0 0 1 3.755-3.338 3.77 3.77 0 0 1 3.756 3.338h.023V288h-7.557v-15.018h.023z" fill="#00A185"/><path d="M298.079 273.664c.163-1.792 1.408-3.185 2.921-3.185s2.759 1.393 2.921 3.185h.018V288h-5.878v-14.336h.018z" fill="#ECF0F1"/><path fill="#BDC3C7" d="M275.39 313.865h50.802v8.344H275.39z"/><path fill="#FFF" d="M269.512 306.356h62.977v7.509h-62.977z"/><path fill="#F2C500" d="M263.214 313.865h12.595v50.061h-12.595z"/><path fill="#F59D00" d="M275.39 313.865l9.656 8.344v41.717h-9.656zm41.564 8.344l9.657-8.344v50.061h-9.657z"/><path fill="#F2C500" d="M288.825 313.865h8.397v50.061h-8.397zm15.954 0h8.397v50.061h-8.397zm21.412 0h12.595v50.061h-12.595z"/><path fill="#E87E04" d="M269.932 363.926h5.458v16.27h-5.458zm21.832 0h5.458v16.27h-5.458zm13.015 0h5.458v16.27h-5.458zm21.412 0h5.458v16.27h-5.458z"/><g><path fill="#FFF" d="M254.817 380.196h92.366v5.006h-92.366z"/><path fill="#2B3E51" d="M254.817 385.202h92.366v13.767h-92.366z"/><path fill="#F59D00" d="M254.817 398.969h92.366V424h-92.366z"/></g><path fill="#E94B35" d="M299.741 41.031h2.519v1h-2.519z"/><g fill="#2B3E51"><path d="M300.58 27.681h1v14.184h-1zm0-11.681h1v5.006h-1zm.42 11.681c-1.855 0-3.359-1.494-3.359-3.337 0-1.844 1.504-3.338 3.359-3.338s3.359 1.494 3.359 3.338c0 1.843-1.504 3.337-3.36 3.337zm0-.834a2.511 2.511 0 0 0 2.519-2.503 2.511 2.511 0 0 0-2.52-2.504 2.511 2.511 0 0 0-2.518 2.504A2.511 2.511 0 0 0 301 26.847z"/></g><g><path fill="#33495F" d="M246.42 363.092h8.397V424h-8.397z"/><path d="M246 363.092c0-2.534 2.068-4.589 4.618-4.589 2.55 0 4.619 2.055 4.619 4.589H246zm0 1.669h9.237v1.668H246v-1.668zm0 20.441h9.237v1.67H246v-1.67zm0 2.503h9.237v1.67H246v-1.67zm0 2.504h9.237v1.668H246v-1.668z" fill="#FFF"/></g><g><path fill="#33495F" d="M347.183 363.092h8.397V424h-8.397z"/><path d="M346.763 363.092c0-2.534 2.068-4.589 4.618-4.589 2.55 0 4.619 2.055 4.619 4.589h-9.237zm0 1.669H356v1.668h-9.237v-1.668zm0 20.441H356v1.67h-9.237v-1.67zm0 2.503H356v1.67h-9.237v-1.67zm0 2.504H356v1.668h-9.237v-1.668z" fill="#FFF"/></g><path fill="#F2C500" d="M274.969 394.798h52.061V424h-52.061z"/></g></svg>